<svg width="82" height="20" viewBox="0 0 82 20" fill="none" xmlns="http://www.w3.org/2000/svg">
<path d="M21.5523 7.08758H29.848V8.62186H26.5817V17.2709H24.7913V8.62186H21.5387L21.5523 7.08758ZM29.4927 9.89817H31.0233V11.3238H31.0507C31.1053 11.1202 31.201 10.9301 31.3377 10.74C31.4743 10.5499 31.6383 10.3734 31.8433 10.224C32.0347 10.0611 32.2533 9.9389 32.4993 9.84386C32.7317 9.74881 32.9777 9.6945 33.2237 9.6945C33.415 9.6945 33.5517 9.70808 33.62 9.70808C33.6883 9.72166 33.7703 9.73524 33.8387 9.73524V11.2967C33.7293 11.2695 33.6063 11.2559 33.4833 11.2424C33.3603 11.2288 33.251 11.2152 33.128 11.2152C32.8547 11.2152 32.595 11.2695 32.349 11.3781C32.103 11.4868 31.898 11.6497 31.7067 11.8534C31.529 12.0706 31.3787 12.3286 31.2693 12.6409C31.16 12.9532 31.1053 13.3198 31.1053 13.7271V17.2301H29.4653L29.4927 9.89817ZM39.7427 17.2709V16.239H39.7153C39.5103 16.6191 39.2097 16.9043 38.8133 17.1351C38.417 17.3659 38.007 17.4745 37.597 17.4745C36.6267 17.4745 35.916 17.2437 35.4787 16.7549C35.0413 16.2797 34.8227 15.5465 34.8227 14.5825V9.89817H36.4627V14.4196C36.4627 15.0713 36.5857 15.5329 36.8453 15.7909C37.0913 16.0625 37.4467 16.1982 37.8977 16.1982C38.2393 16.1982 38.5263 16.1439 38.7587 16.0353C38.991 15.9267 39.1823 15.7909 39.319 15.6144C39.4693 15.4379 39.565 15.2206 39.6333 14.9762C39.7017 14.7318 39.729 14.4603 39.729 14.1752V9.89817H41.369V17.2709H39.7427ZM44.1433 14.9084C44.198 15.3836 44.3757 15.7094 44.69 15.9131C45.0043 16.1032 45.387 16.1982 45.8243 16.1982C45.9747 16.1982 46.1523 16.1847 46.3437 16.1575C46.535 16.1303 46.7263 16.0896 46.8903 16.0217C47.068 15.9538 47.2047 15.8588 47.314 15.723C47.4233 15.5872 47.478 15.4243 47.4643 15.2206C47.4507 15.017 47.3823 14.8405 47.232 14.7047C47.0817 14.5689 46.904 14.4739 46.6853 14.3788C46.4667 14.2974 46.207 14.2295 45.92 14.1752C45.633 14.1208 45.346 14.053 45.0453 13.9851C44.7447 13.9172 44.444 13.8357 44.157 13.7407C43.87 13.6456 43.624 13.5234 43.3917 13.3469C43.173 13.184 42.9817 12.9803 42.8587 12.7223C42.722 12.4644 42.6537 12.1656 42.6537 11.7855C42.6537 11.3781 42.7493 11.0523 42.9543 10.7807C43.1457 10.5092 43.4053 10.2919 43.706 10.129C44.0067 9.96606 44.3483 9.84386 44.7173 9.77597C45.0863 9.70808 45.4417 9.68092 45.7697 9.68092C46.1523 9.68092 46.5213 9.72166 46.863 9.80313C47.2047 9.88459 47.5327 10.0068 47.806 10.1969C48.093 10.3734 48.3253 10.6178 48.503 10.9029C48.6943 11.1881 48.8037 11.5411 48.8583 11.9484H47.15C47.068 11.5547 46.8903 11.2967 46.617 11.1609C46.33 11.0251 46.0157 10.9572 45.6467 10.9572C45.5373 10.9572 45.387 10.9708 45.2367 10.9844C45.0727 11.0115 44.936 11.0387 44.7857 11.093C44.649 11.1473 44.526 11.2288 44.4303 11.3238C44.3347 11.4189 44.28 11.5547 44.28 11.7176C44.28 11.9212 44.3483 12.0706 44.485 12.1928C44.6217 12.315 44.7993 12.4101 45.0317 12.5051C45.2503 12.5866 45.51 12.6544 45.797 12.7088C46.084 12.7631 46.3847 12.831 46.6853 12.8988C46.986 12.9667 47.273 13.0482 47.56 13.1432C47.847 13.2383 48.1067 13.3605 48.3253 13.537C48.544 13.6999 48.7353 13.9036 48.872 14.148C49.0087 14.3924 49.077 14.7047 49.077 15.0577C49.077 15.4922 48.9813 15.8588 48.7763 16.1711C48.5713 16.4698 48.3117 16.7278 47.9973 16.9179C47.683 17.1079 47.314 17.2437 46.9313 17.3388C46.535 17.4202 46.1523 17.4745 45.7697 17.4745C45.305 17.4745 44.8677 17.4202 44.4713 17.3116C44.075 17.203 43.7197 17.0401 43.4327 16.8364C43.1457 16.6191 42.9133 16.3612 42.7493 16.0353C42.5853 15.723 42.4897 15.3428 42.476 14.8948H44.1297V14.9084H44.1433ZM49.5417 9.89817H50.7853V7.67142H52.4253V9.88459H53.9013V11.093H52.4253V15.0306C52.4253 15.2071 52.439 15.3428 52.4527 15.4786C52.4663 15.6008 52.5073 15.7094 52.5483 15.7909C52.603 15.8724 52.685 15.9403 52.7807 15.981C52.89 16.0217 53.0267 16.0489 53.218 16.0489C53.3273 16.0489 53.4503 16.0489 53.5597 16.0353C53.669 16.0217 53.792 16.0082 53.9013 15.981V17.2437C53.7237 17.2709 53.546 17.2845 53.3683 17.298C53.1907 17.3252 53.0267 17.3252 52.8353 17.3252C52.398 17.3252 52.0563 17.2845 51.7967 17.203C51.537 17.1215 51.332 16.9993 51.1817 16.85C51.0313 16.687 50.9357 16.4969 50.881 16.2661C50.8263 16.0353 50.799 15.7502 50.7853 15.4515V11.1066H49.5417V9.87101V9.89817ZM55.0493 9.89817H56.5937V10.9029H56.621C56.8533 10.4684 57.1677 10.1697 57.5777 9.97963C57.9877 9.78955 58.425 9.6945 58.917 9.6945C59.5047 9.6945 60.0103 9.78955 60.4477 10.0068C60.885 10.2105 61.2403 10.482 61.5273 10.8486C61.8143 11.2016 62.033 11.6225 62.1697 12.0978C62.3063 12.573 62.3883 13.0889 62.3883 13.6185C62.3883 14.1208 62.32 14.5961 62.197 15.0577C62.0603 15.5194 61.869 15.9403 61.6093 16.2933C61.3497 16.6463 61.0217 16.9314 60.6117 17.1487C60.2017 17.3659 59.737 17.4745 59.1903 17.4745C58.958 17.4745 58.712 17.4474 58.4797 17.4067C58.2473 17.3659 58.015 17.298 57.7963 17.203C57.5777 17.1079 57.3727 16.9857 57.195 16.8364C57.0037 16.687 56.8533 16.5105 56.7303 16.3204H56.703V20H55.063V9.89817H55.0493ZM60.7757 13.5913C60.7757 13.2654 60.7347 12.9396 60.639 12.6273C60.557 12.315 60.4203 12.0434 60.2427 11.7991C60.065 11.5547 59.8463 11.3646 59.6003 11.2152C59.3407 11.0659 59.04 10.998 58.712 10.998C58.0287 10.998 57.5093 11.2288 57.154 11.704C56.8123 12.1792 56.6347 12.8174 56.6347 13.6049C56.6347 13.9851 56.6757 14.3245 56.7713 14.6368C56.867 14.9491 56.99 15.2206 57.1813 15.4515C57.359 15.6823 57.5777 15.8588 57.8373 15.9946C58.097 16.1303 58.384 16.1982 58.7257 16.1982C59.1083 16.1982 59.409 16.1168 59.6687 15.9674C59.9283 15.8181 60.1333 15.6144 60.311 15.3836C60.475 15.1392 60.598 14.8676 60.6663 14.5553C60.7347 14.2295 60.7757 13.9172 60.7757 13.5913ZM63.6593 7.08758H65.2993V8.62186H63.6593V7.08758ZM63.6593 9.89817H65.2993V17.2709H63.6593V9.89817ZM66.7617 7.08758H68.4017V17.2709H66.7617V7.08758ZM73.4037 17.4745C72.816 17.4745 72.283 17.3795 71.8183 17.1758C71.3537 16.9722 70.971 16.7142 70.643 16.3747C70.3287 16.0353 70.0827 15.6144 69.9187 15.1392C69.7547 14.664 69.659 14.1344 69.659 13.5777C69.659 13.021 69.741 12.5051 69.9187 12.0299C70.0827 11.5547 70.3287 11.1473 70.643 10.7943C70.9573 10.4549 71.3537 10.1833 71.8183 9.99321C72.283 9.80312 72.816 9.6945 73.4037 9.6945C73.9913 9.6945 74.5243 9.78955 74.989 9.99321C75.4537 10.1833 75.8363 10.4549 76.1643 10.7943C76.4787 11.1337 76.7247 11.5547 76.8887 12.0299C77.0527 12.5051 77.1483 13.021 77.1483 13.5777C77.1483 14.148 77.0663 14.664 76.8887 15.1392C76.711 15.6144 76.4787 16.0217 76.1643 16.3747C75.85 16.7142 75.4537 16.9857 74.989 17.1758C74.5243 17.3659 74.005 17.4745 73.4037 17.4745ZM73.4037 16.1847C73.759 16.1847 74.087 16.1032 74.3467 15.9538C74.62 15.8045 74.825 15.6008 75.0027 15.3564C75.1803 15.112 75.3033 14.8269 75.3853 14.5282C75.4673 14.2159 75.5083 13.9036 75.5083 13.5777C75.5083 13.2654 75.4673 12.9532 75.3853 12.6409C75.3033 12.3286 75.1803 12.057 75.0027 11.8126C74.825 11.5682 74.6063 11.3781 74.3467 11.2288C74.0733 11.0794 73.759 10.998 73.4037 10.998C73.0483 10.998 72.7203 11.0794 72.4607 11.2288C72.1873 11.3781 71.9823 11.5818 71.8047 11.8126C71.627 12.057 71.504 12.3286 71.422 12.6409C71.34 12.9532 71.299 13.2654 71.299 13.5777C71.299 13.9036 71.34 14.2159 71.422 14.5282C71.504 14.8405 71.627 15.112 71.8047 15.3564C71.9823 15.6008 72.201 15.8045 72.4607 15.9538C72.734 16.1168 73.0483 16.1847 73.4037 16.1847ZM77.6403 9.89817H78.884V7.67142H80.524V9.88459H82V11.093H80.524V15.0306C80.524 15.2071 80.5377 15.3428 80.5513 15.4786C80.565 15.6008 80.606 15.7094 80.647 15.7909C80.7017 15.8724 80.7837 15.9403 80.8793 15.981C80.9887 16.0217 81.1253 16.0489 81.3167 16.0489C81.426 16.0489 81.549 16.0489 81.6583 16.0353C81.7677 16.0217 81.8907 16.0082 82 15.981V17.2437C81.8223 17.2709 81.6447 17.2845 81.467 17.298C81.2893 17.3252 81.1253 17.3252 80.934 17.3252C80.4967 17.3252 80.155 17.2845 79.8953 17.203C79.6357 17.1215 79.4307 16.9993 79.2803 16.85C79.13 16.687 79.0343 16.4969 78.9797 16.2661C78.925 16.0353 78.8977 15.7502 78.884 15.4515V11.1066H77.6403V9.87101V9.89817Z" fill="black"/>
<path d="M19.639 7.08758H12.136L9.82633 0L7.503 7.08758L0 7.074L6.068 11.4596L3.74467 18.5472L9.81267 14.1616L15.8807 18.5472L13.571 11.4596L19.639 7.08758Z" fill="#00B67A"/>
<path d="M14.0903 13.0618L13.571 11.4596L9.82634 14.1616L14.0903 13.0618Z" fill="#005128"/>
</svg>
